<svg version="1.0" xmlns="http://www.w3.org/2000/svg"
 width="64.000000pt" height="64.000000pt" viewBox="0 0 64.000000 64.000000"
 preserveAspectRatio="xMidYMid meet">

<g transform="translate(0.000000,64.000000) scale(0.100000,-0.100000)"
fill="#fff" stroke="none">
<path d="M231 476 c-90 -90 -162 -168 -160 -174 2 -5 76 -75 164 -156 l160
-146 88 0 c63 0 87 3 87 13 0 6 -70 75 -155 152 l-154 140 154 155 c85 85 155
161 155 168 0 9 -25 12 -88 12 l-87 0 -164 -164z m145 -15 c-82 -82 -147 -153
-145 -158 3 -7 247 -236 288 -270 2 -1 -23 -3 -56 -3 l-61 0 -151 137 -150
138 152 153 152 152 60 0 60 0 -149 -149z" />
</g>
</svg>
