
<svg version="1.0" xmlns="http://www.w3.org/2000/svg"
 width="64.000000pt" height="64.000000pt" viewBox="0 0 64.000000 64.000000"
 preserveAspectRatio="xMidYMid meet">

<g transform="translate(0.000000,64.000000) scale(0.100000,-0.100000)"
fill="#fff" stroke="none">
<path d="M70 628 c0 -7 70 -83 155 -168 l154 -155 -154 -140 c-85 -77 -155
-146 -155 -152 0 -10 24 -13 88 -13 l87 0 160 146 c88 81 162 151 164 156 2 6
-70 84 -160 174 l-164 164 -87 0 c-63 0 -88 -3 -88 -12z m317 -170 l152 -153
-150 -137 -151 -138 -61 0 c-33 0 -58 2 -56 3 41 34 285 263 288 270 2 5 -63
76 -145 158 l-149 149 60 0 60 0 152 -152z"/>
</g>
</svg>
